<svg width="62" height="56" viewBox="0 0 62 56" fill="none" xmlns="http://www.w3.org/2000/svg"><path d="M3.718 0C1.708 0 .128 1.58.128 3.59v48.82c0 2.01 1.58 3.59 3.59 3.59h54.564c2.01 0 3.59-1.58 3.59-3.59V29.436c0-2.01-1.58-3.59-3.59-3.59h-24.41c-.431 0-.718.287-.718.718 0 .43.287.718.718.718h22.256v27.282H29.564c.43-.574.718-1.292.718-2.082V3.59c0-2.01-1.58-3.59-3.59-3.59H3.718zm0 1.436h22.974c1.22 0 2.154.933 2.154 2.154v.718H1.564V3.59c0-1.22.933-2.154 2.154-2.154zM1.564 5.744h27.282v40.205H1.564V5.744zm56 21.538h.718c1.22 0 2.154.933 2.154 2.154V52.41c0 1.22-.934 2.154-2.154 2.154h-.718V27.282zm-56 20.103h27.282v5.097c0 .862-.502 1.58-1.22 1.938a.154.154 0 0 0-.144.144H3.718c-1.22 0-2.154-.933-2.154-2.154v-5.025zm11.344 2.871c-.431.072-.718.431-.646.79.071.36.43.718.79.646h4.307c.43 0 .718-.287.718-.718 0-.43-.287-.718-.718-.718h-4.451z" fill="#FDA1A2"/><path d="M57.205 20.749A19.433 19.433 0 0 0 36.96 4.954L39.544 2.8c.143-.144.287-.359.287-.574a.652.652 0 0 0-.216-.503.769.769 0 0 0-1.005-.072l-4.38 3.734c-.358.359-.358.79-.07 1.077l3.732 4.379c.288.287.718.359 1.005.072.288-.287.36-.718.072-1.005l-2.943-3.446c9.261-1.15 17.948 5.097 19.743 14.502.072.43.36.718.79.646.43-.072.718-.359.646-.861.072.072.072 0 0 0z" fill="#FDA1A2"/></svg>